<?xml version="1.0" encoding="UTF-8"?>
<svg width="300px" height="280px" viewBox="0 0 300 280" version="1.1" xmlns="http://www.w3.org/2000/svg" xmlns:xlink="http://www.w3.org/1999/xlink">
    <!-- Generator: Sketch 50.2 (55047) - http://www.bohemiancoding.com/sketch -->
    <title>1</title>
    <desc>Created with Sketch.</desc>
    <defs></defs>
    <g id="Page-1" stroke="none" stroke-width="1" fill="none" fill-rule="evenodd">
        <g id="1" fill="#FFFFFF" fill-rule="nonzero">
            <path d="M101.833,81.468 C96.951,76.586 96.951,68.672 101.833,63.79 C105.748,59.875 111.614,59.108 116.302,61.474 C120.797,53.557 127.976,47.479 136.725,44.376 C140.838,42.917 145.136,42.177 149.499,42.177 C156.523,42.177 163.405,44.111 169.401,47.77 C171.181,48.856 173.046,49.947 174.985,51.04 L174.985,17.843 C174.985,12.492 172.601,7.484 168.446,4.105 C164.282,0.719 158.89,-0.6 153.657,0.498 C135.628,4.268 112.131,6.343 87.493,6.343 C62.855,6.343 39.358,4.268 21.329,0.498 C20.115,0.244 18.892,0.119 17.679,0.119 C13.655,0.119 9.731,1.494 6.537,4.093 C2.382,7.47 0,12.482 0,17.843 L0,110.473 C0,154.933 33.335,191.754 76.323,197.255 C75.506,183.043 77.53,168.674 82.446,154.859 L85.854,145.281 C79.573,145.664 73.402,148.244 68.613,153.033 C63.732,157.914 55.816,157.914 50.935,153.033 C46.053,148.151 46.053,140.237 50.935,135.355 C62.82,123.47 79.098,118.599 94.59,120.729 L107.028,85.772 C105.186,84.514 103.445,83.08 101.833,81.468 Z M71.95,81.468 C65.175,88.243 56.166,91.975 46.584,91.975 C37.001,91.975 27.992,88.244 21.217,81.468 C16.335,76.586 16.335,68.672 21.217,63.79 C26.098,58.909 34.014,58.909 38.895,63.79 C43.136,68.031 50.034,68.029 54.273,63.79 C59.154,58.909 67.07,58.909 71.951,63.79 C76.832,68.672 76.832,76.587 71.95,81.468 Z" id="Shape"></path>
            <path d="M296.544,117.725 C293.697,113.041 288.89,109.875 283.46,109.133 C265.936,106.74 243.316,101.042 219.265,92.484 C195.214,83.926 174.079,74.056 158.982,64.842 C156.092,63.078 152.806,62.177 149.499,62.177 C147.449,62.177 145.39,62.523 143.412,63.225 C138.243,65.059 134.179,69.126 132.341,74.293 L101.289,161.563 C84.998,207.348 108.908,257.671 154.693,273.961 C164.443,277.43 174.399,279.076 184.188,279.076 C220.367,279.076 254.269,256.592 267.091,220.557 L298.143,133.287 C299.98,128.124 299.391,122.408 296.544,117.725 Z M131.629,141.079 C128.666,134.844 131.319,127.387 137.555,124.425 C146.21,120.312 155.949,119.817 164.976,123.029 C174.003,126.242 181.24,132.777 185.352,141.432 C188.315,147.667 185.662,155.124 179.426,158.086 C177.695,158.909 175.868,159.299 174.071,159.299 C169.395,159.299 164.912,156.664 162.772,152.16 C161.525,149.537 159.332,147.555 156.595,146.582 C153.859,145.607 150.907,145.759 148.284,147.005 C142.049,149.97 134.591,147.315 131.629,141.079 Z M208.213,232.594 C201.072,235.987 193.532,237.594 186.108,237.594 C166.759,237.594 148.172,226.693 139.332,208.085 C136.369,201.85 139.022,194.394 145.258,191.431 C151.493,188.467 158.95,191.121 161.912,197.357 C168.23,210.654 184.187,216.332 197.485,210.014 C203.721,207.051 211.177,209.704 214.139,215.94 C217.102,222.175 214.448,229.631 208.213,232.594 Z M255.378,185.11 C253.647,185.933 251.82,186.323 250.023,186.323 C245.347,186.323 240.864,183.688 238.724,179.184 C236.15,173.768 229.651,171.455 224.235,174.029 C218.002,176.994 210.544,174.34 207.581,168.103 C204.618,161.868 207.271,154.411 213.507,151.449 C231.371,142.96 252.816,150.588 261.305,168.456 C264.267,174.691 261.613,182.148 255.378,185.11 Z" id="Shape"></path>
        </g>
    </g>
</svg>