<?xml version="1.0" encoding="UTF-8"?>
<svg width="489px" height="486px" viewBox="0 0 489 486" version="1.1" xmlns="http://www.w3.org/2000/svg" xmlns:xlink="http://www.w3.org/1999/xlink">
    <!-- Generator: Sketch 50.2 (55047) - http://www.bohemiancoding.com/sketch -->
    <title>2</title>
    <desc>Created with Sketch.</desc>
    <defs></defs>
    <g id="Page-1" stroke="none" stroke-width="1" fill="none" fill-rule="evenodd">
        <g id="2" transform="translate(-1.000000, 0.000000)" fill="#FFFFFF" fill-rule="nonzero">
            <path d="M253.41,56.321 L331.287,34.536 C335.83,33.226 340.839,34.197 344.639,37.07 C348.405,39.932 350.666,44.49 350.666,49.228 L350.666,99.543 L383.77,99.543 L383.77,49.228 C383.77,34.176 376.611,19.775 364.631,10.711 C352.652,1.627 336.862,-1.399 322.378,2.66 L244.49,24.449 C235.68,26.92 230.54,36.052 233.011,44.845 C235.484,53.669 244.697,58.811 253.41,56.321 Z" id="Shape"></path>
            <path d="M42.61,216.467 L38.471,172.278 L21.595,175.411 C19.141,175.866 16.973,177.287 15.568,179.323 C14.164,181.379 13.629,183.913 14.08,186.34 L19.592,216.016 L40.283,216.016 C41.105,216.016 41.816,216.371 42.61,216.467 Z" id="Shape"></path>
            <path d="M66.031,238.854 C67.775,253.382 74.968,266.04 85.361,275.012 L85.361,138.739 C85.086,138.723 84.81,138.595 84.535,138.595 C84.244,138.595 83.972,138.611 83.681,138.627 L61.569,140.71 C59.094,140.938 56.799,142.147 55.215,144.055 C53.635,145.979 52.872,148.453 53.1,150.924 L60.129,225.906 C63.122,229.591 65.432,233.862 66.031,238.854 Z" id="Shape"></path>
            <path d="M225.224,216.016 L230.732,186.34 C231.67,181.247 228.294,176.349 223.201,175.411 L206.329,172.278 L202.19,216.467 C202.996,216.387 203.726,216.016 204.548,216.016 L225.224,216.016 Z" id="Shape"></path>
            <path d="M184.667,225.938 L191.699,150.908 C192.182,145.771 188.402,141.177 183.246,140.71 L161.117,138.627 C160.826,138.611 160.551,138.595 160.26,138.595 C159.989,138.595 159.713,138.722 159.438,138.739 L159.438,275.044 C169.847,266.057 177.056,253.419 178.8,238.901 C179.382,233.893 181.692,229.625 184.667,225.938 Z" id="Shape"></path>
            <path d="M142.884,285.03 L142.884,121.332 C142.884,116.159 138.681,111.956 133.509,111.956 L111.284,111.956 C106.111,111.956 101.913,116.159 101.913,121.332 L101.913,285.03 C108.295,287.488 115.212,288.846 122.404,288.846 C129.597,288.847 136.519,287.505 142.884,285.03 Z" id="Shape"></path>
            <path d="M234.436,232.567 L204.548,232.567 C199.799,232.567 195.787,236.119 195.24,240.825 C190.857,277.205 159.936,305.398 122.405,305.398 C84.874,305.398 53.957,277.208 49.59,240.825 C49.024,236.103 45.032,232.567 40.282,232.567 L10.377,232.567 C7.727,232.567 5.189,233.696 3.412,235.684 C1.632,237.672 0.777,240.322 1.049,242.956 L26.347,476.824 C26.866,481.595 30.889,485.198 35.674,485.198 L209.137,485.198 C213.922,485.198 217.946,481.594 218.464,476.824 L243.758,242.956 C244.033,240.322 243.179,237.671 241.399,235.684 C239.625,233.698 237.084,232.567 234.436,232.567 Z" id="Shape"></path>
            <path d="M464.455,124.37 L269.995,124.37 C256.289,124.37 245.168,135.474 245.168,149.197 C245.168,158.218 250.034,166.04 257.242,170.387 L258.553,197.397 L271.094,455.137 C271.919,472.075 285.903,485.396 302.857,485.396 L431.582,485.396 C448.537,485.396 462.52,472.077 463.342,455.137 L475.887,197.397 L477.198,170.403 C484.406,166.04 489.288,158.217 489.288,149.197 C489.282,135.474 478.162,124.37 464.455,124.37 Z" id="Shape"></path>
        </g>
    </g>
</svg>