<?xml version="1.0" encoding="UTF-8"?>
<svg width="227px" height="205px" viewBox="0 0 227 205" version="1.1" xmlns="http://www.w3.org/2000/svg" xmlns:xlink="http://www.w3.org/1999/xlink">
    <!-- Generator: Sketch 50.2 (55047) - http://www.bohemiancoding.com/sketch -->
    <title>3</title>
    <desc>Created with Sketch.</desc>
    <defs></defs>
    <g id="Page-1" stroke="none" stroke-width="1" fill="none" fill-rule="evenodd">
        <g id="3" fill="#FFFFFF" fill-rule="nonzero">
            <path d="M217.289,72.307 C216.265,72.307 215.214,72.453 214.165,72.743 L203.142,75.779 L191.49,47.398 C187.999,38.892 177.677,31.971 168.481,31.971 L160.728,31.971 L160.728,8.442 C160.728,4.306 157.364,0.942 153.228,0.942 L73.742,0.942 C69.606,0.942 66.242,4.306 66.242,8.442 L66.242,31.971 L58.329,31.971 C49.134,31.971 38.811,38.891 35.32,47.397 L23.684,75.739 L12.805,72.742 C11.756,72.453 10.704,72.306 9.681,72.306 C4.072,72.307 0,76.593 0,82.497 L0,88.529 C0,95.422 5.608,101.029 12.5,101.029 L13.302,101.029 L11.638,105.081 C8.394,112.984 5.754,126.364 5.754,134.906 L5.754,191.527 C5.754,198.42 11.361,204.027 18.254,204.027 L33.281,204.027 C40.174,204.027 45.781,198.42 45.781,191.527 L45.781,177.611 L181.03,177.611 L181.03,191.527 C181.03,198.42 186.638,204.027 193.53,204.027 L208.554,204.027 C215.447,204.027 221.054,198.42 221.054,191.527 L221.054,134.906 C221.054,126.364 218.414,112.984 215.17,105.081 L213.506,101.029 L214.469,101.029 C221.362,101.029 226.969,95.422 226.969,88.529 L226.969,82.497 C226.969,76.593 222.898,72.307 217.289,72.307 Z M143.612,10.944 C143.612,10.779 143.747,10.644 143.912,10.644 L149.69,10.644 C149.855,10.644 149.99,10.779 149.99,10.944 L149.99,31.741 C149.99,31.841 149.933,31.916 149.858,31.971 L143.744,31.971 C143.669,31.916 143.612,31.841 143.612,31.741 L143.612,10.944 Z M102.172,10.644 L109.115,10.644 C109.28,10.644 109.465,10.769 109.526,10.923 L117.767,31.639 L125.321,22.294 C125.425,22.166 125.435,21.948 125.344,21.811 L118.094,10.894 C118.002,10.756 118.063,10.644 118.228,10.644 L124.649,10.644 C124.814,10.644 125.02,10.759 125.106,10.899 L128.843,16.961 C128.929,17.102 129.071,17.102 129.157,16.961 L132.897,10.899 C132.983,10.758 133.189,10.644 133.354,10.644 L139.778,10.644 C139.943,10.644 140.003,10.756 139.912,10.894 L132.656,21.811 C132.564,21.949 132.575,22.166 132.678,22.294 L140.37,31.808 C140.422,31.871 140.434,31.93 140.415,31.972 L133.597,31.972 C133.507,31.925 133.426,31.862 133.379,31.787 L129.158,25.032 C129.07,24.892 128.928,24.892 128.84,25.032 L124.628,31.787 C124.581,31.862 124.5,31.925 124.41,31.972 L111.563,31.972 C111.475,31.92 111.399,31.848 111.37,31.757 L109.954,27.421 C109.903,27.264 109.726,27.136 109.561,27.136 L101.691,27.136 C101.526,27.136 101.346,27.263 101.292,27.419 L99.766,31.759 C99.734,31.849 99.658,31.921 99.569,31.972 L93.39,31.972 C93.341,31.921 93.32,31.851 93.355,31.764 L101.759,10.924 C101.822,10.769 102.007,10.644 102.172,10.644 Z M81.852,31.741 L81.852,15.221 C81.852,15.056 81.717,14.921 81.552,14.921 L74.607,14.921 C74.442,14.921 74.307,14.786 74.307,14.621 L74.307,10.943 C74.307,10.778 74.442,10.643 74.607,10.643 L95.517,10.643 C95.682,10.643 95.817,10.778 95.817,10.943 L95.817,14.621 C95.817,14.786 95.682,14.921 95.517,14.921 L88.532,14.921 C88.367,14.921 88.232,15.056 88.232,15.221 L88.232,31.741 C88.232,31.841 88.175,31.916 88.1,31.971 L81.984,31.971 C81.909,31.917 81.852,31.841 81.852,31.741 Z M32.516,94.062 L50.221,50.933 C52.31,45.845 58.519,41.682 64.019,41.682 L162.791,41.682 C168.291,41.682 174.5,45.845 176.589,50.933 L194.294,94.062 C196.383,99.15 193.592,103.313 188.092,103.313 L38.718,103.313 C33.218,103.313 30.427,99.15 32.516,94.062 Z M72.512,149.604 C72.512,152.354 70.262,154.604 67.512,154.604 L33.718,154.604 C30.968,154.604 28.718,152.354 28.718,149.604 L28.718,133.572 C28.718,130.822 30.968,128.572 33.718,128.572 L67.512,128.572 C70.262,128.572 72.512,130.822 72.512,133.572 L72.512,149.604 Z M197.768,149.604 C197.768,152.354 195.518,154.604 192.768,154.604 L158.974,154.604 C156.224,154.604 153.974,152.354 153.974,149.604 L153.974,133.572 C153.974,130.822 156.224,128.572 158.974,128.572 L192.768,128.572 C195.518,128.572 197.768,130.822 197.768,133.572 L197.768,149.604 Z" id="Shape"></path>
            <path d="M108.157,22.858 C108.322,22.858 108.403,22.734 108.338,22.583 L105.846,16.832 C105.78,16.681 105.67,16.679 105.602,16.829 L102.963,22.586 C102.895,22.736 102.973,22.858 103.138,22.858 L108.157,22.858 Z" id="Shape"></path>
        </g>
    </g>
</svg>