<?xml version="1.0" encoding="UTF-8"?>
<svg width="512px" height="512px" viewBox="0 0 512 512" version="1.1" xmlns="http://www.w3.org/2000/svg" xmlns:xlink="http://www.w3.org/1999/xlink">
    <!-- Generator: Sketch 50.2 (55047) - http://www.bohemiancoding.com/sketch -->
    <title>4</title>
    <desc>Created with Sketch.</desc>
    <defs></defs>
    <g id="Page-1" stroke="none" stroke-width="1" fill="none" fill-rule="evenodd">
        <g id="4" fill="#FFFFFF" fill-rule="nonzero">
            <polygon id="Shape" points="289.262 222.738 289.262 134.423 222.738 134.423 222.738 222.738 134.423 222.738 134.423 289.262 222.738 289.262 222.738 377.577 289.262 377.577 289.262 289.262 377.577 289.262 377.577 222.738"></polygon>
            <path d="M437.02,74.98 C388.667,26.629 324.38,0 256,0 C187.62,0 123.333,26.629 74.98,74.98 C26.629,123.333 0,187.62 0,256 C0,324.38 26.629,388.667 74.98,437.02 C123.333,485.371 187.62,512 256,512 C324.38,512 388.667,485.371 437.02,437.02 C485.371,388.667 512,324.38 512,256 C512,187.62 485.371,123.333 437.02,74.98 Z M407.576,319.261 L319.261,319.261 L319.261,407.576 L192.738,407.576 L192.738,319.261 L104.423,319.261 L104.423,192.738 L192.738,192.738 L192.738,104.423 L319.261,104.423 L319.261,192.738 L407.576,192.738 L407.576,319.261 Z" id="Shape"></path>
        </g>
    </g>
</svg>