<?xml version="1.0" encoding="UTF-8"?>
<svg width="491px" height="437px" viewBox="0 0 491 437" version="1.1" xmlns="http://www.w3.org/2000/svg" xmlns:xlink="http://www.w3.org/1999/xlink">
    <!-- Generator: Sketch 50.2 (55047) - http://www.bohemiancoding.com/sketch -->
    <title>5</title>
    <desc>Created with Sketch.</desc>
    <defs></defs>
    <g id="Page-1" stroke="none" stroke-width="1" fill="none" fill-rule="evenodd">
        <g id="5" fill="#FFFFFF" fill-rule="nonzero">
            <path d="M451.611,151.111 L420.367,151.111 C424.035,171.704 415.227,193.412 396.388,205.068 C388.063,210.214 378.511,212.937 368.753,212.937 C350.394,212.937 333.671,203.625 324.024,188.025 C317.202,176.992 314.991,163.779 317.274,151.11 L173.604,151.11 C175.877,163.779 173.667,176.991 166.846,188.032 C157.207,203.624 140.484,212.936 122.125,212.936 C112.36,212.936 102.809,210.213 94.479,205.067 C75.644,193.411 66.833,171.703 70.505,151.11 L39.263,151.11 C17.575,151.11 0,168.685 0,190.373 C0,212.049 17.575,229.623 39.263,229.623 L43.594,229.623 L72.387,404.739 C75.406,423.058 91.234,436.51 109.81,436.51 L381.064,436.51 C399.639,436.51 415.467,423.058 418.484,404.739 L447.268,229.625 L451.611,229.625 C473.297,229.625 490.875,212.049 490.875,190.374 C490.875,168.686 473.295,151.111 451.611,151.111 Z M167.419,391.083 C166.233,391.257 165.059,391.349 163.896,391.349 C152.437,391.349 142.393,382.958 140.627,371.28 L124.321,262.598 C122.39,249.728 131.252,237.737 144.122,235.806 C157.008,233.931 168.975,242.737 170.914,255.599 L187.224,364.291 C189.155,377.157 180.289,389.151 167.419,391.083 Z M268.997,367.782 C268.997,380.8 258.456,391.346 245.445,391.346 C232.429,391.346 221.893,380.797 221.893,367.782 L221.893,259.093 C221.893,246.089 232.43,235.54 245.445,235.54 C258.456,235.54 268.997,246.089 268.997,259.093 L268.997,367.782 Z M366.561,262.596 L350.244,371.278 C348.49,382.958 338.447,391.347 326.988,391.347 C325.82,391.347 324.65,391.256 323.461,391.081 C310.592,389.15 301.729,377.155 303.66,364.289 L319.967,255.597 C321.905,242.727 333.824,233.865 346.758,235.803 C359.625,237.734 368.49,249.727 366.561,262.596 Z" id="Shape"></path>
            <path d="M102.748,191.713 C108.785,195.453 115.496,197.234 122.127,197.234 C134.468,197.234 146.534,191.035 153.489,179.77 C159.904,169.395 160.456,157.124 156.228,146.619 L226.175,33.571 C232.496,23.349 229.335,9.96 219.113,3.627 C215.547,1.424 211.591,0.364 207.69,0.364 C200.404,0.364 193.288,4.025 189.162,10.688 L119.238,123.736 C107.956,124.642 97.218,130.596 90.803,140.968 C80.086,158.283 85.449,181.003 102.748,191.713 Z" id="Shape"></path>
            <path d="M334.652,146.619 C330.424,157.124 330.964,169.395 337.381,179.77 C344.348,191.036 356.402,197.234 368.754,197.234 C375.383,197.234 382.086,195.453 388.133,191.713 C405.432,181.003 410.783,158.282 400.07,140.968 C393.672,130.596 382.924,124.642 371.652,123.736 L301.7,10.688 C297.586,4.024 290.469,0.364 283.181,0.364 C279.282,0.364 275.326,1.424 271.754,3.627 C261.536,9.96 258.4,23.349 264.696,33.571 L334.652,146.619 Z" id="Shape"></path>
        </g>
    </g>
</svg>