<?xml version="1.0" encoding="UTF-8"?>
<svg width="493px" height="380px" viewBox="0 0 493 380" version="1.1" xmlns="http://www.w3.org/2000/svg" xmlns:xlink="http://www.w3.org/1999/xlink">
    <!-- Generator: Sketch 50.2 (55047) - http://www.bohemiancoding.com/sketch -->
    <title>pair-of-banknotes</title>
    <desc>Created with Sketch.</desc>
    <defs></defs>
    <g id="Page-1" stroke="none" stroke-width="1" fill="none" fill-rule="evenodd">
        <g id="pair-of-banknotes" fill="#FFFFFF" fill-rule="nonzero">
            <path d="M252.947,101.884 C242.117,104.32 232.825,109.711 225.259,116.769 L307.565,116.769 C293.457,103.537 273.24,97.294 252.947,101.884 Z" id="Shape"></path>
            <path d="M491.367,200.891 L452.263,27.716 C448.124,9.427 429.485,-2.451 411.101,1.712 L67.081,79.395 C58.114,81.424 50.469,86.814 45.553,94.594 C41.39,101.185 39.762,109.087 40.622,116.771 L113.532,116.771 C115.184,111.852 116.237,106.687 116.551,101.378 L375.911,42.855 C386.511,62.153 407.099,74.119 429.405,73.275 L451.147,169.575 C446.222,171.69 441.739,174.475 437.7,177.715 L437.7,248.3 L465.374,242.046 C483.877,237.865 495.537,219.404 491.367,200.891 Z" id="Shape"></path>
            <path d="M387.105,132.939 L34.425,132.939 C15.44,132.939 0,148.375 0,167.359 L0,344.908 C0,363.891 15.44,379.333 34.425,379.333 L387.109,379.333 C406.092,379.333 421.533,363.893 421.533,344.908 L421.533,167.359 C421.531,148.375 406.092,132.939 387.105,132.939 Z M389.201,305.491 C367.242,309.579 349.781,325.819 343.684,346.995 L77.844,346.995 C71.756,325.809 54.296,309.571 32.328,305.491 L32.328,206.77 C54.287,202.679 71.756,186.455 77.844,165.263 L343.695,165.263 C349.783,186.447 367.244,202.672 389.203,206.77 L389.201,305.491 Z" id="Shape"></path>
            <path d="M210.771,195.809 C177.455,195.809 150.441,222.811 150.441,256.127 C150.441,289.449 177.455,316.452 210.771,316.452 C244.083,316.452 271.096,289.45 271.096,256.127 C271.096,222.811 244.083,195.809 210.771,195.809 Z" id="Shape"></path>
        </g>
    </g>
</svg>