<?xml version="1.0" encoding="UTF-8"?>
<svg width="90px" height="41px" viewBox="0 0 90 41" version="1.1" xmlns="http://www.w3.org/2000/svg" xmlns:xlink="http://www.w3.org/1999/xlink">
    <!-- Generator: Sketch 50.2 (55047) - http://www.bohemiancoding.com/sketch -->
    <title>focus</title>
    <desc>Created with Sketch.</desc>
    <defs></defs>
    <g id="Page-1" stroke="none" stroke-width="1" fill="none" fill-rule="evenodd">
        <g id="focus" transform="translate(42.500000, 22.238269) scale(-1, 1) rotate(40.000000) translate(-42.500000, -22.238269) translate(-1.000000, -1.261731)" fill="#F56391" fill-rule="nonzero">
            <path d="M86.1663357,11.8917503 L86.1690545,11.8902816 C86.1717732,11.8880784 86.174492,11.8858753 86.1772108,11.8829378 C86.4110255,11.7397347 86.5823084,11.5671567 86.7196066,11.3850318 C86.763107,11.3292193 86.7916541,11.2763443 86.8229201,11.2197975 C86.9017646,11.0795319 86.9507025,10.9341257 86.9670152,10.7821102 C86.9751715,10.7262977 86.9914842,10.6734227 86.9887654,10.6161415 C86.9887654,10.5867665 87.0023593,10.560329 86.9996405,10.5316884 C86.9806091,10.3561729 86.9153584,10.1865323 86.8147637,10.027173 C86.8066074,10.0102824 86.7848572,9.99706366 86.7739821,9.98017305 C86.654356,9.8046575 86.4830731,9.64897007 86.2805243,9.50650139 C86.2519771,9.48667327 86.2424614,9.46023578 86.2125549,9.44040767 L72.1959056,0.520692962 C71.1233486,-0.162275478 69.3629411,-0.175494222 68.2618369,0.4935211 C67.1634514,1.16180205 67.1430606,2.25748905 68.2183365,2.94192624 L75.7738147,7.75134593 C64.7342252,6.96115879 53.8822311,8.2162051 53.3697418,8.27789257 C19.8662663,11.5583442 -3.84281907,28.2727116 0.516738105,45.5371257 C0.73288079,46.3919378 1.91418892,47 3.26134239,47 C3.40543751,47 3.54953264,46.9933906 3.69634653,46.9801719 C5.21342349,46.8310938 6.24927712,45.945438 6.01274361,45.0002978 C2.12897222,29.6224923 23.7609128,14.6838428 54.3213134,11.6905316 C54.4613304,11.6729067 65.6735622,10.3730635 76.2305691,11.2690006 L64.5710986,15.0091708 C63.2049137,15.4483268 62.6706742,16.4926076 63.3734778,17.3422791 C64.074922,18.1934193 65.749688,18.5231535 67.119951,18.0891381 L85.4988762,12.1935783 C85.7476442,12.1120627 85.9705838,12.0099846 86.1663357,11.8917503 Z" id="Shape"></path>
        </g>
    </g>
</svg>